<mxfile modified="2021-12-14T03:40:56.658Z" host="app.diagrams.net" agent="5.0 (Windows NT 10.0; Win64; x64) AppleWebKit/537.36 (KHTML, like Gecko) Chrome/96.0.4664.93 Safari/537.36" etag="a-HwAugog0sL2le40yYH" version="15.9.6" type="github">
  <diagram id="l8hXMBHkgcEJcSW0mbfh" name="Page-1">
    <mxGraphModel dx="1231" dy="588" grid="1" gridSize="10" guides="1" tooltips="1" connect="1" arrows="1" fold="1" page="1" pageScale="1" pageWidth="1169" pageHeight="827" math="0" shadow="0">
      <root>
        <mxCell id="0" />
        <mxCell id="1" parent="0" />
        <mxCell id="WImRKY0PAhno3_4iszdw-1" value="" style="fontColor=#0066CC;verticalAlign=top;verticalLabelPosition=bottom;labelPosition=center;align=center;html=1;outlineConnect=0;fillColor=#CCCCCC;strokeColor=#6881B3;gradientColor=none;gradientDirection=north;strokeWidth=2;shape=mxgraph.networks.switch;" vertex="1" parent="1">
          <mxGeometry x="260" y="310" width="100" height="30" as="geometry" />
        </mxCell>
        <mxCell id="WImRKY0PAhno3_4iszdw-5" value="Ноут 10.10.10.1" style="fontColor=#0066CC;verticalAlign=top;verticalLabelPosition=bottom;labelPosition=center;align=center;html=1;outlineConnect=0;fillColor=#CCCCCC;strokeColor=#6881B3;gradientColor=none;gradientDirection=north;strokeWidth=2;shape=mxgraph.networks.laptop;" vertex="1" parent="1">
          <mxGeometry x="80" y="410" width="100" height="55" as="geometry" />
        </mxCell>
        <mxCell id="WImRKY0PAhno3_4iszdw-6" value="ноут 10.10.10.2" style="fontColor=#0066CC;verticalAlign=top;verticalLabelPosition=bottom;labelPosition=center;align=center;html=1;outlineConnect=0;fillColor=#CCCCCC;strokeColor=#6881B3;gradientColor=none;gradientDirection=north;strokeWidth=2;shape=mxgraph.networks.laptop;" vertex="1" parent="1">
          <mxGeometry x="260" y="410" width="100" height="55" as="geometry" />
        </mxCell>
        <mxCell id="WImRKY0PAhno3_4iszdw-7" value="Ноут 10.10.10.3" style="fontColor=#0066CC;verticalAlign=top;verticalLabelPosition=bottom;labelPosition=center;align=center;html=1;outlineConnect=0;fillColor=#CCCCCC;strokeColor=#6881B3;gradientColor=none;gradientDirection=north;strokeWidth=2;shape=mxgraph.networks.laptop;" vertex="1" parent="1">
          <mxGeometry x="440" y="410" width="100" height="55" as="geometry" />
        </mxCell>
        <mxCell id="WImRKY0PAhno3_4iszdw-8" value="" style="endArrow=none;html=1;rounded=0;exitX=0.83;exitY=0;exitDx=0;exitDy=0;exitPerimeter=0;" edge="1" parent="1" source="WImRKY0PAhno3_4iszdw-5" target="WImRKY0PAhno3_4iszdw-6">
          <mxGeometry width="50" height="50" relative="1" as="geometry">
            <mxPoint x="420" y="280" as="sourcePoint" />
            <mxPoint x="470" y="230" as="targetPoint" />
            <Array as="points">
              <mxPoint x="310" y="340" />
            </Array>
          </mxGeometry>
        </mxCell>
        <mxCell id="WImRKY0PAhno3_4iszdw-9" value="" style="endArrow=none;html=1;rounded=0;entryX=0.16;entryY=0;entryDx=0;entryDy=0;entryPerimeter=0;" edge="1" parent="1" target="WImRKY0PAhno3_4iszdw-7">
          <mxGeometry width="50" height="50" relative="1" as="geometry">
            <mxPoint x="310" y="340" as="sourcePoint" />
            <mxPoint x="470" y="230" as="targetPoint" />
          </mxGeometry>
        </mxCell>
        <mxCell id="WImRKY0PAhno3_4iszdw-10" value="Роутер &lt;br&gt;86.102.120.103&lt;br&gt;10.10.10.254&lt;br&gt;" style="fontColor=#0066CC;verticalAlign=top;verticalLabelPosition=bottom;labelPosition=center;align=center;html=1;outlineConnect=0;fillColor=#CCCCCC;strokeColor=#6881B3;gradientColor=none;gradientDirection=north;strokeWidth=2;shape=mxgraph.networks.wireless_modem;" vertex="1" parent="1">
          <mxGeometry x="260" y="170" width="100" height="85" as="geometry" />
        </mxCell>
        <mxCell id="WImRKY0PAhno3_4iszdw-11" value="" style="fontColor=#0066CC;verticalAlign=top;verticalLabelPosition=bottom;labelPosition=center;align=center;html=1;outlineConnect=0;fillColor=#CCCCCC;strokeColor=#6881B3;gradientColor=none;gradientDirection=north;strokeWidth=2;shape=mxgraph.networks.radio_tower;" vertex="1" parent="1">
          <mxGeometry x="550" y="125" width="55" height="100" as="geometry" />
        </mxCell>
        <mxCell id="WImRKY0PAhno3_4iszdw-12" value="" style="fontColor=#0066CC;verticalAlign=top;verticalLabelPosition=bottom;labelPosition=center;align=center;html=1;outlineConnect=0;fillColor=#CCCCCC;strokeColor=#6881B3;gradientColor=none;gradientDirection=north;strokeWidth=2;shape=mxgraph.networks.comm_link;rotation=65;" vertex="1" parent="1">
          <mxGeometry x="420" y="140" width="30" height="100" as="geometry" />
        </mxCell>
        <mxCell id="WImRKY0PAhno3_4iszdw-16" value="" style="fontColor=#0066CC;verticalAlign=top;verticalLabelPosition=bottom;labelPosition=center;align=center;html=1;outlineConnect=0;fillColor=#CCCCCC;strokeColor=#6881B3;gradientColor=none;gradientDirection=north;strokeWidth=2;shape=mxgraph.networks.comm_link;rotation=120;" vertex="1" parent="1">
          <mxGeometry x="680" y="140" width="30" height="100" as="geometry" />
        </mxCell>
        <mxCell id="WImRKY0PAhno3_4iszdw-17" value="Роутер &lt;br&gt;213.87.100.187&lt;br&gt;10.10.15.254" style="fontColor=#0066CC;verticalAlign=top;verticalLabelPosition=bottom;labelPosition=center;align=center;html=1;outlineConnect=0;fillColor=#CCCCCC;strokeColor=#6881B3;gradientColor=none;gradientDirection=north;strokeWidth=2;shape=mxgraph.networks.wireless_modem;" vertex="1" parent="1">
          <mxGeometry x="800" y="160" width="100" height="85" as="geometry" />
        </mxCell>
        <mxCell id="WImRKY0PAhno3_4iszdw-18" value="" style="fontColor=#0066CC;verticalAlign=top;verticalLabelPosition=bottom;labelPosition=center;align=center;html=1;outlineConnect=0;fillColor=#CCCCCC;strokeColor=#6881B3;gradientColor=none;gradientDirection=north;strokeWidth=2;shape=mxgraph.networks.switch;" vertex="1" parent="1">
          <mxGeometry x="800" y="300" width="100" height="30" as="geometry" />
        </mxCell>
        <mxCell id="WImRKY0PAhno3_4iszdw-19" value="Ноут 10.10.15.1" style="fontColor=#0066CC;verticalAlign=top;verticalLabelPosition=bottom;labelPosition=center;align=center;html=1;outlineConnect=0;fillColor=#CCCCCC;strokeColor=#6881B3;gradientColor=none;gradientDirection=north;strokeWidth=2;shape=mxgraph.networks.laptop;" vertex="1" parent="1">
          <mxGeometry x="620" y="400" width="100" height="55" as="geometry" />
        </mxCell>
        <mxCell id="WImRKY0PAhno3_4iszdw-20" value="ноут 10.10.15.2" style="fontColor=#0066CC;verticalAlign=top;verticalLabelPosition=bottom;labelPosition=center;align=center;html=1;outlineConnect=0;fillColor=#CCCCCC;strokeColor=#6881B3;gradientColor=none;gradientDirection=north;strokeWidth=2;shape=mxgraph.networks.laptop;" vertex="1" parent="1">
          <mxGeometry x="801" y="400" width="100" height="55" as="geometry" />
        </mxCell>
        <mxCell id="WImRKY0PAhno3_4iszdw-21" value="Ноут 10.10.15.3" style="fontColor=#0066CC;verticalAlign=top;verticalLabelPosition=bottom;labelPosition=center;align=center;html=1;outlineConnect=0;fillColor=#CCCCCC;strokeColor=#6881B3;gradientColor=none;gradientDirection=north;strokeWidth=2;shape=mxgraph.networks.laptop;" vertex="1" parent="1">
          <mxGeometry x="980" y="400" width="100" height="55" as="geometry" />
        </mxCell>
        <mxCell id="WImRKY0PAhno3_4iszdw-22" value="" style="endArrow=none;html=1;rounded=0;exitX=0.83;exitY=0;exitDx=0;exitDy=0;exitPerimeter=0;" edge="1" source="WImRKY0PAhno3_4iszdw-19" target="WImRKY0PAhno3_4iszdw-20" parent="1">
          <mxGeometry width="50" height="50" relative="1" as="geometry">
            <mxPoint x="960" y="270" as="sourcePoint" />
            <mxPoint x="1010" y="220" as="targetPoint" />
            <Array as="points">
              <mxPoint x="850" y="330" />
            </Array>
          </mxGeometry>
        </mxCell>
        <mxCell id="WImRKY0PAhno3_4iszdw-23" value="" style="endArrow=none;html=1;rounded=0;entryX=0.16;entryY=0;entryDx=0;entryDy=0;entryPerimeter=0;" edge="1" target="WImRKY0PAhno3_4iszdw-21" parent="1">
          <mxGeometry width="50" height="50" relative="1" as="geometry">
            <mxPoint x="850.0000000000002" y="330.0000000000001" as="sourcePoint" />
            <mxPoint x="1010" y="220" as="targetPoint" />
          </mxGeometry>
        </mxCell>
      </root>
    </mxGraphModel>
  </diagram>
</mxfile>
